<svg xmlns="http://www.w3.org/2000/svg" xmlns:xlink="http://www.w3.org/1999/xlink" width="2211" height="2132" preserveAspectRatio="xMidYMid meet" viewBox="0 0 2211 2132" style="-ms-transform: rotate(360deg); -webkit-transform: rotate(360deg); transform: rotate(360deg);"><path d="M0 1014q0-185 113.5-328.5T406 498q50-218 224.5-358T1031 0q220 0 392.5 136.5T1648 487h34q143 0 265 70.5t193 192t71 264.5q0 212-148 365t-360 160q-21 0-21-18v-142q0-19 21-19q136-7 232.5-108.5T2032 1014q0-142-103-245t-247-103h-172q-19 0-19-18l-8-62q-18-173-148.5-290T1031 179q-176 0-305.5 118T579 590l-6 53q0 20-21 20l-56 7q-133 11-223.5 110.5T182 1014q0 136 96.5 237.5T511 1360q18 0 18 19v142q0 18-18 18q-214-7-362.5-160T0 1014zm679 434q0-36 25.5-62t62.5-26t62.5 26t25.5 62q0 38-25.5 64.5T767 1539t-62.5-26.5T679 1448zm0 387q0-38 26-64q25-24 62-24t62.5 25t25.5 63t-25.5 63t-62.5 25t-62.5-25t-25.5-63zm340-181q0-37 27-66q26-26 61-26q37 0 64.5 27.5t27.5 64.5t-27 63.5t-65 26.5q-36 0-62-26.5t-26-63.5zm0-386q0-37 27-64q28-26 61-26q38 0 65 26.5t27 63.5t-27 62.5t-65 25.5q-36 0-62-25.5t-26-62.5zm0 776q0-36 27-65q26-26 61-26q38 0 65 27t27 64t-27 62.5t-65 25.5q-36 0-62-25.5t-26-62.5zm344-596q0-35 27-61.5t64-26.5t62.5 26t25.5 62q0 38-25.5 64.5T1454 1539q-38 0-64.5-27t-26.5-64zm0 387q0-35 27-64q26-24 64-24t63 25t25 63t-25 63t-63 25t-64.5-25.5t-26.5-62.5z" fill="#626262"/><rect x="0" y="0" width="2211" height="2132" fill="rgba(0, 0, 0, 0)" /></svg>