<svg xmlns="http://www.w3.org/2000/svg" xmlns:xlink="http://www.w3.org/1999/xlink" width="1509" height="1543" preserveAspectRatio="xMidYMid meet" viewBox="0 0 1509 1543" style="-ms-transform: rotate(360deg); -webkit-transform: rotate(360deg); transform: rotate(360deg);"><path d="M0 757q0-153 60-293t161.5-241.5t242-162T757 0h122q25 7 25 30l5 94q6 203 146 346t340 151l88 7q26 0 26 25v104q1 205-99.5 379.5t-274 276T757 1514q-156 0-296.5-60t-241-161.5t-160-241.5T0 757zm195 0q0 122 48.5 230t127 181t180 115.5T757 1326q93 0 187.5-36.5t175.5-102t139.5-167.5t75.5-223q-261-54-418.5-223.5T735 175q-151 8-276.5 93T264 483.5T195 757z" fill="#626262"/><rect x="0" y="0" width="1509" height="1543" fill="rgba(0, 0, 0, 0)" /></svg>