<svg xmlns="http://www.w3.org/2000/svg" xmlns:xlink="http://www.w3.org/1999/xlink" width="2331" height="2361" preserveAspectRatio="xMidYMid meet" viewBox="0 0 2331 2361" style="-ms-transform: rotate(360deg); -webkit-transform: rotate(360deg); transform: rotate(360deg);"><path d="M0 1238q0 212 149 366t363 161q19 0 19-18v-143q0-18-19-18q-136-7-233-109.5T182 1238t90.5-235T497 893l57-8q21 0 21-18l7-55q17-175 146.5-293T1034 401q174 0 305 117.5T1488 809l8 61q0 19 18 19h173q145 0 248.5 103t103.5 246q0 136-97 238.5T1709 1586q-22 0-22 18v143q0 18 22 18q140-4 257-76t184.5-192t67.5-259q0-146-69-265q118-106 162-275l18-77q2-2 2-8q0-12-17-17l-65-18q-70-21-124.5-61t-86-89.5t-47-101T1976 225q0-43 11-92l12-66q4-15-15-24l-85-26q-70-17-133-17q-59 0-120 14t-126 44t-126 85.5T1288 274q-129-53-254-53q-226 0-401.5 140.5T407 721q-180 45-293.5 188T0 1238zm681 436q0 38 25.5 64.5T769 1765q38 0 63.5-26.5T858 1674q0-36-25.5-62t-63.5-26q-37 0-62.5 26t-25.5 62zm0 388q0 36 26 62t62 26q38 0 63.5-25t25.5-63t-25.5-63t-63.5-25t-63 25t-25 63zm342-181q0 39 26 63q26 26 62 26q38 0 65-26t27-63q0-38-27-65.5t-65-27.5q-35 0-61.5 27.5T1023 1881zm0-388q0 38 26 62q26 26 62 26q39 0 65.5-25t26.5-63q0-37-27-63.5t-65-26.5q-36 0-62 26.5t-26 63.5zm0 780q0 35 26 61q27 27 62 27q38 0 65-25.5t27-62.5q0-38-27-65.5t-65-27.5q-35 0-61.5 27.5T1023 2273zm345-599q0 38 26.5 64.5t63.5 26.5t62.5-26.5t25.5-64.5q0-36-25.5-62t-62.5-26t-63.5 26t-26.5 62zm0 388q0 36 26 62t64 26t63-25.5t25-62.5q0-38-25-63t-63-25t-64 25t-26 63zm73-1694q50-87 138.5-134.5T1762 184q24 0 35 2v33q0 155 83.5 292.5T2112 721q-25 58-81 114q-142-126-344-126h-33q-44-197-213-341z" fill="#626262"/><rect x="0" y="0" width="2331" height="2361" fill="rgba(0, 0, 0, 0)" /></svg>